<?xml version="1.0" encoding="utf-8"?>
<!-- Svg Vector Icons : http://www.onlinewebfonts.com/icon -->
<!DOCTYPE svg PUBLIC "-//W3C//DTD SVG 1.1//EN" "http://www.w3.org/Graphics/SVG/1.1/DTD/svg11.dtd">
<svg version="1.1" xmlns="http://www.w3.org/2000/svg" xmlns:xlink="http://www.w3.org/1999/xlink" x="0px" y="0px" viewBox="0 0 1000 1000" enable-background="new 0 0 1000 1000" xml:space="preserve">
<metadata> Svg Vector Icons : http://www.onlinewebfonts.com/icon </metadata>
<g><path d="M500.1,10C229.2,10.1,10.4,229.1,10,499.2C9.6,770.8,229.3,989.5,498.9,990c271.9,0.5,491-219.5,491.1-489.6C990.2,229.2,770.7,10.2,500.1,10z M348.1,395.4c0.5-7.3,2-14.7,4.2-21.6c3.5-11.1,7.1-22.4,12.2-32.8c8.7-17.9,20.7-33.7,35.5-46.8c14.8-13.1,31.4-23.7,50.4-30.2c11.4-3.9,22.8-7.2,35-7.8c6-0.2,12-1.7,17.9-1.3c13.6,1,27,2.8,40.2,7c27.5,8.7,50.4,24,69.3,45.5c13.9,15.9,24.4,33.8,31.3,53.8c3.7,10.6,6.9,21.2,7.8,32.5c0.7,8.4,1.7,16.7,2.6,25c-1,10.7-1.2,21.3-3.2,31.6c-4.9,24.9-14.5,47.9-29.6,68.5c-16,21.8-36.1,38.7-60.6,49.9c-10.7,4.9-22.5,7.7-34.1,10.5c-8.4,2-17.2,3.2-25.9,3.2c-8.8,0-17.7-1.2-26.4-3c-9.8-2-19.7-4.4-28.9-8.2c-10.6-4.5-21-10-30.7-16.3c-12.5-8.3-23.4-18.8-32.7-30.7c-10.2-13-18.4-27.2-24.6-42.7c-5.5-13.8-9.6-28-10.8-42.5C345.9,424.6,347.1,409.9,348.1,395.4z M748.4,794.3c-1.1,0.1-2.3,0-3.4,0c-163.3,0-326.6,0-490,0c-7.3,0-13.6-2.1-18.7-7.6c-5.6-6.1-6-13.2-4.8-20.7c0.9-5.5,2-11.1,3.3-16.5c3-12.2,5.7-24.5,9.6-36.4c3.9-12,8.8-23.6,13.8-35.2c9-20.7,21-39.8,35.5-56.9c11.7-13.7,24.1-27.1,37.7-38.9c13.1-11.4,28-20.6,42.3-30.8c70.8,75,183.1,73.7,252.1,0.3c11.4,7.9,23.7,15,34.4,24.1c14,11.9,27.6,24.5,39.9,38.1c17.2,19.1,31.2,40.6,41.5,64.2c6.2,14.3,12,28.8,17,43.6c3.1,9.2,4.6,19,6.5,28.5c1.5,7.6,3.1,15.2,3.6,22.9C769.6,785.3,759.1,793.1,748.4,794.3z"/></g>
</svg>